<?xml version="1.0" encoding="utf-8"?>
<!-- Svg Vector Icons : http://www.onlinewebfonts.com/icon -->
<!DOCTYPE svg PUBLIC "-//W3C//DTD SVG 1.1//EN" "http://www.w3.org/Graphics/SVG/1.1/DTD/svg11.dtd">
<svg version="1.1" xmlns="http://www.w3.org/2000/svg" xmlns:xlink="http://www.w3.org/1999/xlink" x="0px" y="0px" viewBox="0 0 1000 1000" enable-background="new 0 0 1000 1000" xml:space="preserve">
<metadata> Svg Vector Icons : http://www.onlinewebfonts.com/icon </metadata>
<g><g transform="translate(0.000000,511.000000) scale(0.100000,-0.100000)"><path style="fill:#1A6AAB"  d="M4557.2,4982.8C2201,4684.1,368,2274.3,125.5-847.9c-12.8-181.2-25.5-390.6-25.5-464.6v-137.8h204.2h204.2v186.3c2.6,985.4,291,2210.7,737.8,3119.6c653.5,1330,1618.5,2241.4,2746.9,2588.6c2226.1,686.7,4470-975.2,5246.1-3887.9c234.9-875.6,319.1-2062.7,191.5-2721.3c-285.9-1488.3-1317.2-2417.5-2422.6-2182.7c-357.4,76.6-768.4,331.9-1041.6,653.5c-446.7,523.3-760.7,1393.9-760.7,2108.6v135.3h-206.8h-209.3l17.9-273.2c81.7-1284.1,717.4-2386.9,1641.5-2851.5c308.9-153.2,533.5-204.2,901.2-204.2c252.7,0,359.9,10.2,518.2,56.2c822,234.9,1501.1,965,1827.8,1960.6c186.3,574.4,240,1141.1,181.3,1924.8c-227.2,2963.8-1914.6,5315-4145.8,5771.9C5440.5,4993,4840.6,5018.5,4557.2,4982.8z"/></g></g>
</svg>